<svg width="137" height="50" viewBox="0 0 137 50" fill="none" xmlns="http://www.w3.org/2000/svg">
<g clip-path="url(#clip0_297_430)">
<path d="M19.2759 15.9864V36.5741L22.1748 38.5941L33.1896 31.7288V27.9825L29.9646 26.1913L34.798 23.0213L38.1257 25.1572L38.2888 34.9057L22.2324 44.8183L14.2302 39.8034V19.0985L19.2759 15.9864Z" fill="#1C96D4"/>
<path d="M11.2724 37.8413V17.4273L22.2324 10.7385L30.5565 15.7534L22.2324 20.9434V27.2296L35.82 18.9813V12.753L22.1789 4.27583L6.49517 14.1939V34.9595L11.2724 37.8413Z" fill="#1C96D4"/>
<path d="M47.1143 33.0222H53.1861C55.2603 33.0222 56.8344 32.381 56.8344 30.0176C56.8344 28.1231 55.6412 27.1427 53.2807 27.1427H47.1143V33.0222ZM52.9656 22.8173C55.3562 22.8173 56.144 21.8024 56.144 20.3505C56.144 18.5594 54.8562 17.8506 52.9971 17.8506H47.1157V22.8173H52.9669H52.9656ZM41.8288 13.5293H54.0999C59.3854 13.5293 61.6815 16.3008 61.6815 19.6459C61.6815 22.4174 60.1087 24.0403 58.3771 24.7146C60.5156 25.4233 62.5008 27.2144 62.5008 30.219C62.5008 34.714 59.321 37.3118 53.878 37.3118H41.8275V13.5293H41.8288Z" fill="#1C96D4"/>
<path d="M81.0602 32.2445L81.093 37.3132H76.061C75.998 36.8416 75.998 36.0308 75.9651 35.289C75.1472 36.6389 73.9211 37.7889 70.4892 37.7889C67.0574 37.7889 64.4489 35.6627 64.4489 30.5264V19.8458H69.5754V29.6081C69.5754 31.9384 70.3632 33.4937 72.5004 33.4937C74.987 33.4937 75.9281 31.9053 75.9281 27.919V19.8458H81.0547L81.0588 32.2445H81.0602Z" fill="#1C96D4"/>
<path d="M102.103 37.3132V23.8652H99.3373V19.8458H102.103V18.3608C102.103 14.1029 104.116 11.9092 108.271 11.9092C109.057 11.9092 109.875 11.9423 110.378 12.0788V16.1326C110.093 16.0995 109.718 16.0995 109.37 16.0995C107.703 16.0995 107.263 16.7407 107.263 18.3622V19.8472H110.6V23.8666H107.263V37.3145H102.103V37.3132Z" fill="#1C96D4"/>
<path d="M116.988 19.8458C119.787 27.4144 120.985 31.6392 121.297 32.8857H121.393C121.83 31.1635 123.092 26.5347 125.295 19.8458H130.549L125.104 34.8133C122.305 42.619 121.456 45.1492 115.886 45.1492C115.164 45.1492 113.969 45.083 113.366 44.9465V40.49C114.122 40.5562 114.496 40.5921 115.003 40.5921C117.238 40.5921 117.739 39.8144 118.589 37.9902L111.355 19.8472H116.988V19.8458Z" fill="#1C96D4"/>
<path d="M89.2719 12.1408H84.144V37.3132H89.2719V12.1408Z" fill="#1C96D4"/>
<path d="M97.6372 4.24687H92.5092V37.3118H97.6372V4.24687Z" fill="#1C96D4"/>
</g>
<defs>
<clipPath id="clip0_297_430">
<rect width="137" height="50" fill="white"/>
</clipPath>
</defs>
</svg>
