{"asset":{"version":"2.0","generator":"THREE.GLTFExporter r175"},"scenes":[{"name":"AuxScene","nodes":[12]}],"scene":0,"nodes":[{"mesh":0},{"mesh":1},{"mesh":2},{"mesh":3},{"mesh":4},{"mesh":5},{"mesh":6},{"mesh":7},{"matrix":[0.5161363366325163,0,-0.5161363366325165,0,0,-0.7299270072992701,0,0,0.5161363366325165,0,0.5161363366325163,0,0,0,0,1],"children":[0,1,2,3,4,5,6,7]},{"children":[8]},{"matrix":[1,0,0,0,0,1,0,0,0,0,1,0,-36.40370389157983,18.018636042184205,34.339158668106265,1],"children":[9]},{"children":[10]},{"children":[11]}],"bufferViews":[{"buffer":0,"byteOffset":0,"byteLength":8496,"target":34962,"byteStride":12},{"buffer":0,"byteOffset":8496,"byteLength":5664,"target":34962,"byteStride":8},{"buffer":0,"byteOffset":14160,"byteLength":8496,"target":34962,"byteStride":12},{"buffer":0,"byteOffset":22656,"byteLength":7776,"target":34962,"byteStride":12},{"buffer":0,"byteOffset":30432,"byteLength":5184,"target":34962,"byteStride":8},{"buffer":0,"byteOffset":35616,"byteLength":7776,"target":34962,"byteStride":12},{"buffer":0,"byteOffset":43392,"byteLength":54144,"target":34962,"byteStride":12},{"buffer":0,"byteOffset":97536,"byteLength":36096,"target":34962,"byteStride":8},{"buffer":0,"byteOffset":133632,"byteLength":54144,"target":34962,"byteStride":12},{"buffer":0,"byteOffset":187776,"byteLength":35136,"target":34962,"byteStride":12},{"buffer":0,"byteOffset":222912,"byteLength":23424,"target":34962,"byteStride":8},{"buffer":0,"byteOffset":246336,"byteLength":35136,"target":34962,"byteStride":12},{"buffer":0,"byteOffset":281472,"byteLength":32256,"target":34962,"byteStride":12},{"buffer":0,"byteOffset":313728,"byteLength":21504,"target":34962,"byteStride":8},{"buffer":0,"byteOffset":335232,"byteLength":32256,"target":34962,"byteStride":12},{"buffer":0,"byteOffset":367488,"byteLength":39456,"target":34962,"byteStride":12},{"buffer":0,"byteOffset":406944,"byteLength":26304,"target":34962,"byteStride":8},{"buffer":0,"byteOffset":433248,"byteLength":39456,"target":34962,"byteStride":12},{"buffer":0,"byteOffset":472704,"byteLength":2736,"target":34962,"byteStride":12},{"buffer":0,"byteOffset":475440,"byteLength":1824,"target":34962,"byteStride":8},{"buffer":0,"byteOffset":477264,"byteLength":2736,"target":34962,"byteStride":12},{"buffer":0,"byteOffset":480000,"byteLength":2736,"target":34962,"byteStride":12},{"buffer":0,"byteOffset":482736,"byteLength":1824,"target":34962,"byteStride":8},{"buffer":0,"byteOffset":484560,"byteLength":2736,"target":34962,"byteStride":12}],"buffers":[{"byteLength":487296,"uri":"data:application/octet-stream;base64,"}],"accessors":[{"bufferView":0,"componentType":5126,"count":708,"max":[38.59161376953125,45.171600341796875,4.599999904632568],"min":[13.93019962310791,15.61593246459961,-0.6000000238418579],"type":"VEC3"},{"bufferView":1,"componentType":5126,"count":708,"max":[39.96943664550781,44.81829833984375],"min":[13.93019962310791,-3.5999999046325684],"type":"VEC2"},{"bufferView":2,"componentType":5126,"count":708,"max":[0.9999899864196777,0.8639373183250427,1],"min":[-1,-0.8586065769195557,-1],"type":"VEC3"},{"bufferView":3,"componentType":5126,"count":648,"max":[36.119998931884766,38.21074295043945,4.599999904632568],"min":[6.195169925689697,3.9217562675476074,-0.6000000238418579],"type":"VEC3"},{"bufferView":4,"componentType":5126,"count":648,"max":[38.21074295043945,37.84130096435547],"min":[6.195169925689697,-3.5999999046325684],"type":"VEC2"},{"bufferView":5,"componentType":5126,"count":648,"max":[1,0.8638885617256165,1],"min":[-1,-0.8528534173965454,-1],"type":"VEC3"},{"bufferView":6,"componentType":5126,"count":4512,"max":[62.80195617675781,37.61180114746094,4.599999904632568],"min":[41.52750015258789,13.229299545288086,-0.6000000238418579],"type":"VEC3"},{"bufferView":7,"componentType":5126,"count":4512,"max":[62.50080108642578,37.311798095703125],"min":[13.229299545288086,-3.5999999046325684],"type":"VEC2"},{"bufferView":8,"componentType":5126,"count":4512,"max":[1,1,1],"min":[-1,-1,-1],"type":"VEC3"},{"bufferView":9,"componentType":5126,"count":2928,"max":[81.39396667480469,38.08943557739258,4.599999904632568],"min":[64.1489028930664,19.545799255371094,-0.6000000238418579],"type":"VEC3"},{"bufferView":10,"componentType":5126,"count":2928,"max":[81.39396667480469,37.78889846801758],"min":[19.545799255371094,-3.5999999046325684],"type":"VEC2"},{"bufferView":11,"componentType":5126,"count":2928,"max":[1,1,1],"min":[-1,-1,-1],"type":"VEC3"},{"bufferView":12,"componentType":5126,"count":2688,"max":[110.9000015258789,37.614498138427734,4.599999904632568],"min":[99.03730010986328,11.609139442443848,-0.6000000238418579],"type":"VEC3"},{"bufferView":13,"componentType":5126,"count":2688,"max":[110.9000015258789,37.31449890136719],"min":[11.839799880981445,-3.5999999046325684],"type":"VEC2"},{"bufferView":14,"componentType":5126,"count":2688,"max":[1,1,1],"min":[-1,-1,-1],"type":"VEC3"},{"bufferView":15,"componentType":5126,"count":3288,"max":[130.89651489257812,45.44930648803711,4.599999904632568],"min":[111.00381469726562,19.427978515625,-0.6000000238418579],"type":"VEC3"},{"bufferView":16,"componentType":5126,"count":3288,"max":[130.89651489257812,45.149200439453125],"min":[19.427978515625,-3.5999999046325684],"type":"VEC2"},{"bufferView":17,"componentType":5126,"count":3288,"max":[0.9670778512954712,1,1],"min":[-0.9999964237213135,-0.9999591112136841,-1],"type":"VEC3"},{"bufferView":18,"componentType":5126,"count":228,"max":[89.5718994140625,37.61320114135742,4.599999904632568],"min":[83.84400177001953,11.840800285339355,-0.6000000238418579],"type":"VEC3"},{"bufferView":19,"componentType":5126,"count":228,"max":[89.5718994140625,37.313201904296875],"min":[11.840800285339355,-3.5999999046325684],"type":"VEC2"},{"bufferView":20,"componentType":5126,"count":228,"max":[1,1,1],"min":[-1,-1,-1],"type":"VEC3"},{"bufferView":21,"componentType":5126,"count":228,"max":[97.93720245361328,37.61180114746094,4.599999904632568],"min":[92.20919799804688,3.9468700885772705,-0.6000000238418579],"type":"VEC3"},{"bufferView":22,"componentType":5126,"count":228,"max":[97.93720245361328,37.311798095703125],"min":[3.9468700885772705,-3.5999999046325684],"type":"VEC2"},{"bufferView":23,"componentType":5126,"count":228,"max":[1,1,1],"min":[-1,-1,-1],"type":"VEC3"}],"materials":[{"pbrMetallicRoughness":{"baseColorFactor":[0.6375968739867731,0.6653872982754769,0.7083757798856457,1],"metallicFactor":0,"roughnessFactor":0.3},"doubleSided":true,"extensions":{"KHR_materials_transmission":{"transmissionFactor":1},"KHR_materials_volume":{"thicknessFactor":0,"attenuationColor":[1,1,1]}}}],"meshes":[{"primitives":[{"mode":4,"attributes":{"POSITION":0,"TEXCOORD_0":1,"NORMAL":2},"material":0}]},{"primitives":[{"mode":4,"attributes":{"POSITION":3,"TEXCOORD_0":4,"NORMAL":5},"material":0}]},{"primitives":[{"mode":4,"attributes":{"POSITION":6,"TEXCOORD_0":7,"NORMAL":8},"material":0}]},{"primitives":[{"mode":4,"attributes":{"POSITION":9,"TEXCOORD_0":10,"NORMAL":11},"material":0}]},{"primitives":[{"mode":4,"attributes":{"POSITION":12,"TEXCOORD_0":13,"NORMAL":14},"material":0}]},{"primitives":[{"mode":4,"attributes":{"POSITION":15,"TEXCOORD_0":16,"NORMAL":17},"material":0}]},{"primitives":[{"mode":4,"attributes":{"POSITION":18,"TEXCOORD_0":19,"NORMAL":20},"material":0}]},{"primitives":[{"mode":4,"attributes":{"POSITION":21,"TEXCOORD_0":22,"NORMAL":23},"material":0}]}],"extensionsUsed":["KHR_materials_transmission","KHR_materials_volume"]}